# Exported from ProBuilder
# http://www.procore3d.com/probuilder
# 11/3/2018 1:17:30 PM

mtllib ./Cheese.mtl
o Cheese

g Cheese (1)
v 0.4264545 7.152557E-07 0.4025148
v -0.4197029 8.039979E-07 -0.1163315
v -1.023378 2.931025E-07 1.810455
v -0.4197029 8.039979E-07 -0.1163315
v -0.4260419 -0.9999993 -0.1202186
v -1.023378 2.931025E-07 1.810455
v -1.023378 -0.9999998 1.810454
v -0.4260419 -0.9999993 -0.1202186
v 0.4264545 -0.9999994 0.4025146
v -1.023378 -0.9999998 1.810454
v 0.4264545 -0.9999994 0.4025146
v 0.4264545 7.152557E-07 0.4025148
v -1.023378 -0.9999998 1.810454
v -1.023378 2.931025E-07 1.810455
v 0.4077603 7.832857E-07 0.3474781
v -0.3475088 8.6194E-07 -0.1118915
v 0.4165419 -0.9999993 0.3444428
v -0.366677 -0.9999992 -0.1284346
v 0.4264545 7.152557E-07 0.4025148
v -0.4197029 8.039979E-07 -0.1163315
v 0.4077603 7.832857E-07 0.3474781
v -0.3475088 8.6194E-07 -0.1118915
v 0.4264545 -0.9999994 0.4025146
v 0.4264545 7.152557E-07 0.4025148
v 0.4165419 -0.9999993 0.3444428
v 0.4077603 7.832857E-07 0.3474781
v -0.4197029 8.039979E-07 -0.1163315
v -0.4260419 -0.9999993 -0.1202186
v -0.3475088 8.6194E-07 -0.1118915
v -0.366677 -0.9999992 -0.1284346
v -0.4260419 -0.9999993 -0.1202186
v 0.4264545 -0.9999994 0.4025146
v -0.366677 -0.9999992 -0.1284346
v 0.4165419 -0.9999993 0.3444428

vn 2.980232E-08 1 2.384186E-07
vn 2.980232E-08 1 2.384186E-07
vn 2.980232E-08 1 2.384186E-07
vn -0.9542357 0.007210993 -0.2989685
vn -0.9547865 0.003603956 -0.2972706
vn -0.9547865 0.003603956 -0.2972706
vn -0.9553213 2.764121E-08 -0.2955694
vn -2.980232E-08 -1 -2.384186E-07
vn -2.980232E-08 -1 -2.384186E-07
vn -2.980232E-08 -1 -2.384186E-07
vn 0.6966663 -1.456137E-07 0.7173954
vn 0.6966663 -1.456137E-07 0.7173954
vn 0.6966663 -1.456137E-07 0.7173954
vn 0.6966663 -1.456137E-07 0.7173954
vn 0.5182243 0.005680731 -0.855226
vn 0.5196458 0.004173343 -0.8543717
vn 0.5168484 0.007137151 -0.8560473
vn 0.5182243 0.005680731 -0.855226
vn -7.822933E-07 1 1.568281E-06
vn -8.255394E-07 1 1.633348E-06
vn -7.38102E-07 1 1.501791E-06
vn -7.822933E-07 1 1.568281E-06
vn 0.9694635 0.004628922 -0.2451926
vn 0.9468682 1.262393E-07 -0.3216218
vn 0.9857008 0.009166802 -0.1682557
vn 0.9694635 0.004628922 -0.2451926
vn -0.0286885 0.01057628 -0.9995326
vn -0.1370898 0.00471945 -0.9905475
vn 0.06137745 0.01533352 -0.9979969
vn -0.0286885 0.01057628 -0.9995326
vn 1.475765E-06 -1 -2.711955E-06
vn 1.376079E-06 -1 -2.531191E-06
vn 1.60381E-06 -1 -2.944144E-06
vn 1.475765E-06 -1 -2.711955E-06

vt 0 0
vt 0.9925642 0
vt 0.5 1.958139
vt 0.007380303 -0.2421206
vt 1.007408 -0.2421206
vt 0.003717796 1.777017
vt 1.00369 1.77883
vt -1 0
vt 0 0
vt -0.5 1.958139
vt -1 0
vt 0 0
vt -1 2.020967
vt 0 2.020967
vt -0.04457181 0.0002669289
vt -0.9285694 0.0002669285
vt -0.03864615 1.000293
vt -0.9535429 1.000271
vt 0 0
vt 0.9925642 0
vt 0.04470628 -0.03714647
vt 0.9286981 -0.03395315
vt -1 0
vt 0 0
vt -0.9999999 -0.05891169
vt 5.517645E-08 -0.05739753
vt -0.8764109 0.001626303
vt -0.8829765 1.001632
vt -0.8040804 0.001626248
vt -0.824228 1.001674
vt -1 3.134114E-06
vt 0 3.134114E-06
vt -0.9536865 -0.03803292
vt -0.03880651 -0.04432115

g Cheese (1)_0
usemtl YellowCheeseInterior
f 7/7/7 6/6/6 4/4/4 5/5/5
f 14/14/14 13/13/13 11/11/11 12/12/12

g Cheese (1)_1
usemtl YellowCheeseExterior
f 17/17/17 18/18/18 16/16/16 15/15/15
f 21/21/21 22/22/22 20/20/20 19/19/19
f 25/25/25 26/26/26 24/24/24 23/23/23
f 29/29/29 30/30/30 28/28/28 27/27/27
f 33/33/33 34/34/34 32/32/32 31/31/31

g Cheese (1)_2
usemtl YellowCheeseExterior
f 1/1/1 2/2/2 3/3/3
f 8/8/8 9/9/9 10/10/10

